<svg width="20" height="20" viewBox="0 0 20 20" fill="none" xmlns="http://www.w3.org/2000/svg">
<path d="M16.2 18C16.2 18.4418 16.5582 18.8 17 18.8C17.4418 18.8 17.8 18.4418 17.8 18H16.2ZM13.5 12.6667V11.8667V12.6667ZM6.5 12.6667V11.8667V12.6667ZM3 16.2222H2.2H3ZM2.2 18C2.2 18.4418 2.55817 18.8 3 18.8C3.44183 18.8 3.8 18.4418 3.8 18H2.2ZM17.8 18V16.2222H16.2V18H17.8ZM17.8 16.2222C17.8 15.0711 17.35 13.9646 16.545 13.1469L15.4048 14.2693C15.9125 14.7851 16.2 15.4874 16.2 16.2222H17.8ZM16.545 13.1469C15.7396 12.3287 14.6445 11.8667 13.5 11.8667V13.4667C14.212 13.4667 14.8974 13.7539 15.4048 14.2693L16.545 13.1469ZM13.5 11.8667H6.5V13.4667H13.5V11.8667ZM6.5 11.8667C5.35547 11.8667 4.26041 12.3287 3.455 13.1469L4.59525 14.2693C5.1026 13.7539 5.78802 13.4667 6.5 13.4667V11.8667ZM3.455 13.1469C2.65002 13.9646 2.2 15.0711 2.2 16.2222H3.8C3.8 15.4874 4.08747 14.7851 4.59525 14.2693L3.455 13.1469ZM2.2 16.2222V18H3.8V16.2222H2.2ZM12.7 5.55556C12.7 7.08933 11.4793 8.31111 10 8.31111V9.91111C12.3867 9.91111 14.3 7.94914 14.3 5.55556H12.7ZM10 8.31111C8.52066 8.31111 7.3 7.08933 7.3 5.55556H5.7C5.7 7.94914 7.61334 9.91111 10 9.91111V8.31111ZM7.3 5.55556C7.3 4.02178 8.52066 2.8 10 2.8V1.2C7.61334 1.2 5.7 3.16197 5.7 5.55556H7.3ZM10 2.8C11.4793 2.8 12.7 4.02178 12.7 5.55556H14.3C14.3 3.16197 12.3867 1.2 10 1.2V2.8Z" fill="#101828"/>
</svg>
