<svg width="20" height="20" viewBox="0 0 20 20" fill="none" xmlns="http://www.w3.org/2000/svg">
<path d="M13 10L13.5657 10.5657C13.7157 10.4157 13.8 10.2122 13.8 10C13.8 9.78783 13.7157 9.58434 13.5657 9.43432L13 10ZM9.56569 5.43431C9.25327 5.1219 8.74673 5.1219 8.43432 5.43431C8.1219 5.74673 8.1219 6.25327 8.43432 6.56569L9.56569 5.43431ZM8.43431 13.4343C8.1219 13.7467 8.1219 14.2533 8.43431 14.5657C8.74673 14.8781 9.25327 14.8781 9.56569 14.5657L8.43431 13.4343ZM8.43432 6.56569L12.4343 10.5657L13.5657 9.43432L9.56569 5.43431L8.43432 6.56569ZM12.4343 9.43431L8.43431 13.4343L9.56569 14.5657L13.5657 10.5657L12.4343 9.43431Z" fill="white"/>
</svg>
