<svg width="20" height="20" viewBox="0 0 20 20" fill="none" xmlns="http://www.w3.org/2000/svg">
<path d="M10 12L9.43431 12.5657C9.74673 12.8781 10.2533 12.8781 10.5657 12.5657L10 12ZM14.5657 8.56569C14.8781 8.25327 14.8781 7.74673 14.5657 7.43431C14.2533 7.12189 13.7467 7.12189 13.4343 7.43431L14.5657 8.56569ZM6.56569 7.43431C6.25327 7.1219 5.74673 7.1219 5.43431 7.43431C5.12189 7.74673 5.12189 8.25327 5.43431 8.56569L6.56569 7.43431ZM13.4343 7.43431L9.43431 11.4343L10.5657 12.5657L14.5657 8.56569L13.4343 7.43431ZM10.5657 11.4343L6.56569 7.43431L5.43431 8.56569L9.43431 12.5657L10.5657 11.4343Z" fill="#101828"/>
</svg>
