<svg width="20" height="20" viewBox="0 0 20 20" fill="none" xmlns="http://www.w3.org/2000/svg">
<path d="M7 10L6.43431 9.43431C6.28428 9.58434 6.2 9.78783 6.2 10C6.2 10.2122 6.28428 10.4157 6.43431 10.5657L7 10ZM10.4343 14.5657C10.7467 14.8781 11.2533 14.8781 11.5657 14.5657C11.8781 14.2533 11.8781 13.7467 11.5657 13.4343L10.4343 14.5657ZM11.5657 6.56569C11.8781 6.25327 11.8781 5.74673 11.5657 5.43431C11.2533 5.12189 10.7467 5.12189 10.4343 5.43431L11.5657 6.56569ZM11.5657 13.4343L7.56568 9.43431L6.43431 10.5657L10.4343 14.5657L11.5657 13.4343ZM7.56568 10.5657L11.5657 6.56569L10.4343 5.43431L6.43431 9.43431L7.56568 10.5657Z" fill="white"/>
</svg>
