<svg width="16" height="16" viewBox="0 0 16 16" fill="none" xmlns="http://www.w3.org/2000/svg">
<path d="M10.4 7.99999L10.8243 8.42425C11.0586 8.18994 11.0586 7.81004 10.8243 7.57572L10.4 7.99999ZM7.62426 4.37572C7.38995 4.14141 7.01005 4.14141 6.77573 4.37572C6.54142 4.61004 6.54142 4.98994 6.77573 5.22425L7.62426 4.37572ZM6.77573 10.7757C6.54142 11.01 6.54142 11.3899 6.77573 11.6243C7.01005 11.8586 7.38995 11.8586 7.62426 11.6243L6.77573 10.7757ZM6.77573 5.22425L9.97573 8.42425L10.8243 7.57572L7.62426 4.37572L6.77573 5.22425ZM9.97573 7.57572L6.77573 10.7757L7.62426 11.6243L10.8243 8.42425L9.97573 7.57572Z" fill="#D0D5DD"/>
</svg>
