<svg width="20" height="20" viewBox="0 0 20 20" fill="none" xmlns="http://www.w3.org/2000/svg">
<path d="M13.392 6.608L14.1509 6.86098C14.2468 6.57351 14.172 6.25658 13.9577 6.04232C13.7434 5.82805 13.4265 5.75323 13.139 5.84905L13.392 6.608ZM11.696 11.696L11.949 12.4549C12.1879 12.3753 12.3753 12.1879 12.4549 11.949L11.696 11.696ZM6.608 13.392L5.84905 13.139C5.75323 13.4265 5.82805 13.7434 6.04232 13.9577C6.25658 14.172 6.57351 14.2468 6.86098 14.1509L6.608 13.392ZM8.304 8.304L8.05102 7.54505C7.81213 7.62468 7.62468 7.81213 7.54505 8.05102L8.304 8.304ZM17.2 10C17.2 13.9765 13.9765 17.2 10 17.2V18.8C14.8601 18.8 18.8 14.8601 18.8 10H17.2ZM10 17.2C6.02355 17.2 2.8 13.9765 2.8 10H1.2C1.2 14.8601 5.13989 18.8 10 18.8V17.2ZM2.8 10C2.8 6.02355 6.02355 2.8 10 2.8V1.2C5.13989 1.2 1.2 5.13989 1.2 10H2.8ZM10 2.8C13.9765 2.8 17.2 6.02355 17.2 10H18.8C18.8 5.13989 14.8601 1.2 10 1.2V2.8ZM12.6331 6.35502L10.9371 11.443L12.4549 11.949L14.1509 6.86098L12.6331 6.35502ZM11.443 10.9371L6.35502 12.6331L6.86098 14.1509L11.949 12.4549L11.443 10.9371ZM7.36695 13.645L9.06295 8.55698L7.54505 8.05102L5.84905 13.139L7.36695 13.645ZM8.55698 9.06295L13.645 7.36695L13.139 5.84905L8.05102 7.54505L8.55698 9.06295Z" fill="black"/>
</svg>
