<svg width="20" height="20" viewBox="0 0 20 20" fill="none" xmlns="http://www.w3.org/2000/svg">
<path d="M1 1.2C0.558172 1.2 0.2 1.55817 0.2 2C0.2 2.44183 0.558172 2.8 1 2.8V1.2ZM4.27273 2L5.05357 1.82599C4.97205 1.46018 4.64751 1.2 4.27273 1.2V2ZM6.46545 11.8395L7.24981 11.6821C7.2487 11.6765 7.24753 11.671 7.2463 11.6655L6.46545 11.8395ZM8.10182 13.1429V12.3429C8.09676 12.3429 8.09171 12.3429 8.08665 12.343L8.10182 13.1429ZM16.0545 13.1429L16.0697 12.343C16.0647 12.3429 16.0596 12.3429 16.0545 12.3429V13.1429ZM17.6909 11.8395L16.9106 11.6632C16.9092 11.6694 16.9078 11.6757 16.9066 11.6821L17.6909 11.8395ZM19 6.04762L19.7803 6.22399C19.8339 5.98681 19.7767 5.73812 19.6249 5.54817C19.4731 5.35821 19.2432 5.24762 19 5.24762V6.04762ZM5.09091 5.24762C4.64908 5.24762 4.29091 5.60579 4.29091 6.04762C4.29091 6.48945 4.64908 6.84762 5.09091 6.84762V5.24762ZM7.56364 17.1905C7.56364 17.192 7.56349 17.1917 7.56374 17.1911C7.56374 17.1911 7.56318 17.1924 7.56133 17.1942C7.55947 17.196 7.55727 17.1975 7.55509 17.1984C7.55342 17.1991 7.55066 17.2 7.54545 17.2V18.8C8.43111 18.8 9.16364 18.0874 9.16364 17.1905H7.56364ZM7.54545 17.2C7.54025 17.2 7.53749 17.1991 7.53582 17.1984C7.53364 17.1975 7.53143 17.196 7.52958 17.1942C7.52773 17.1924 7.52717 17.1911 7.52717 17.1911C7.52742 17.1917 7.52727 17.192 7.52727 17.1905H5.92727C5.92727 18.0874 6.6598 18.8 7.54545 18.8V17.2ZM7.52727 17.1905C7.52727 17.1889 7.52742 17.1893 7.52717 17.1898C7.52717 17.1899 7.52773 17.1886 7.52958 17.1867C7.53143 17.1849 7.53364 17.1835 7.53582 17.1826C7.53749 17.1819 7.54025 17.181 7.54545 17.181V15.581C6.6598 15.581 5.92727 16.2936 5.92727 17.1905H7.52727ZM7.54545 17.181C7.55066 17.181 7.55342 17.1819 7.55509 17.1826C7.55727 17.1835 7.55948 17.1849 7.56133 17.1867C7.56318 17.1886 7.56374 17.1899 7.56374 17.1898C7.56349 17.1893 7.56364 17.1889 7.56364 17.1905H9.16364C9.16364 16.2936 8.43111 15.581 7.54545 15.581V17.181ZM16.5636 17.1905C16.5636 17.192 16.5635 17.1917 16.5637 17.1911C16.5637 17.1911 16.5632 17.1924 16.5613 17.1942C16.5595 17.196 16.5573 17.1975 16.5551 17.1984C16.5534 17.1991 16.5507 17.2 16.5455 17.2V18.8C17.4311 18.8 18.1636 18.0874 18.1636 17.1905H16.5636ZM16.5455 17.2C16.5403 17.2 16.5375 17.1991 16.5358 17.1984C16.5336 17.1975 16.5314 17.196 16.5296 17.1942C16.5277 17.1924 16.5272 17.1911 16.5272 17.1911C16.5274 17.1917 16.5273 17.192 16.5273 17.1905H14.9273C14.9273 18.0874 15.6598 18.8 16.5455 18.8V17.2ZM16.5273 17.1905C16.5273 17.1889 16.5274 17.1893 16.5272 17.1898C16.5272 17.1899 16.5277 17.1886 16.5296 17.1867C16.5314 17.1849 16.5336 17.1835 16.5358 17.1826C16.5375 17.1819 16.5403 17.181 16.5455 17.181V15.581C15.6598 15.581 14.9273 16.2936 14.9273 17.1905H16.5273ZM16.5455 17.181C16.5507 17.181 16.5534 17.1819 16.5551 17.1826C16.5573 17.1835 16.5595 17.1849 16.5613 17.1867C16.5632 17.1886 16.5637 17.1899 16.5637 17.1898C16.5635 17.1893 16.5636 17.1889 16.5636 17.1905H18.1636C18.1636 16.2936 17.4311 15.581 16.5455 15.581V17.181ZM1 2.8H4.27273V1.2H1V2.8ZM3.49188 2.17401L5.68461 12.0135L7.2463 11.6655L5.05357 1.82599L3.49188 2.17401ZM5.6811 11.997C5.79329 12.5558 6.10023 13.0561 6.54594 13.4111L7.54277 12.1595C7.39016 12.038 7.28725 11.8686 7.24981 11.6821L5.6811 11.997ZM6.54594 13.4111C6.99147 13.7659 7.54762 13.9535 8.11698 13.9427L8.08665 12.343C7.88807 12.3468 7.69556 12.2812 7.54277 12.1595L6.54594 13.4111ZM8.10182 13.9429H16.0545V12.3429H8.10182V13.9429ZM16.0394 13.9427C16.6087 13.9535 17.1649 13.7659 17.6104 13.4111L16.6136 12.1595C16.4608 12.2812 16.2683 12.3468 16.0697 12.343L16.0394 13.9427ZM17.6104 13.4111C18.0561 13.0561 18.3631 12.5558 18.4753 11.997L16.9066 11.6821C16.8691 11.8686 16.7662 12.038 16.6136 12.1595L17.6104 13.4111ZM18.4712 12.0159L19.7803 6.22399L18.2197 5.87125L16.9106 11.6632L18.4712 12.0159ZM19 5.24762H5.09091V6.84762H19V5.24762Z" fill="#101828"/>
</svg>
