<svg width="20" height="20" viewBox="0 0 20 20" fill="none" xmlns="http://www.w3.org/2000/svg">
<path d="M14.5657 6.56569C14.8781 6.25327 14.8781 5.74673 14.5657 5.43431C14.2533 5.1219 13.7467 5.1219 13.4343 5.43431L14.5657 6.56569ZM5.43431 13.4343C5.1219 13.7467 5.1219 14.2533 5.43431 14.5657C5.74673 14.8781 6.25327 14.8781 6.56569 14.5657L5.43431 13.4343ZM6.56569 5.43431C6.25327 5.1219 5.74673 5.1219 5.43431 5.43431C5.1219 5.74673 5.1219 6.25327 5.43431 6.56569L6.56569 5.43431ZM13.4343 14.5657C13.7467 14.8781 14.2533 14.8781 14.5657 14.5657C14.8781 14.2533 14.8781 13.7467 14.5657 13.4343L13.4343 14.5657ZM13.4343 5.43431L5.43431 13.4343L6.56569 14.5657L14.5657 6.56569L13.4343 5.43431ZM5.43431 6.56569L13.4343 14.5657L14.5657 13.4343L6.56569 5.43431L5.43431 6.56569Z" fill="#7F56D9"/>
</svg>
