<svg width="12" height="12" viewBox="0 0 12 12" fill="none" xmlns="http://www.w3.org/2000/svg">
<path d="M8.75353 3.95356C8.94879 3.7583 8.94879 3.44171 8.75353 3.24645C8.55827 3.05119 8.24168 3.05119 8.04642 3.24645L8.75353 3.95356ZM3.24642 8.04645C3.05116 8.24171 3.05116 8.5583 3.24642 8.75356C3.44168 8.94882 3.75827 8.94882 3.95353 8.75356L3.24642 8.04645ZM3.95353 3.24645C3.75827 3.05119 3.44168 3.05119 3.24642 3.24645C3.05116 3.44171 3.05116 3.7583 3.24642 3.95356L3.95353 3.24645ZM8.04642 8.75356C8.24168 8.94882 8.55827 8.94882 8.75353 8.75356C8.94879 8.5583 8.94879 8.24171 8.75353 8.04645L8.04642 8.75356ZM8.04642 3.24645L3.24642 8.04645L3.95353 8.75356L8.75353 3.95356L8.04642 3.24645ZM3.24642 3.95356L8.04642 8.75356L8.75353 8.04645L3.95353 3.24645L3.24642 3.95356Z" fill="#7F56D9"/>
</svg>
