<svg width="20" height="20" viewBox="0 0 20 20" fill="none" xmlns="http://www.w3.org/2000/svg">
<path d="M10.8 6.8C10.8 6.35817 10.4418 6 10 6C9.55817 6 9.2 6.35817 9.2 6.8H10.8ZM9.2 13.2C9.2 13.6418 9.55817 14 10 14C10.4418 14 10.8 13.6418 10.8 13.2H9.2ZM6.8 9.2C6.35817 9.2 6 9.55817 6 10C6 10.4418 6.35817 10.8 6.8 10.8V9.2ZM13.2 10.8C13.6418 10.8 14 10.4418 14 10C14 9.55817 13.6418 9.2 13.2 9.2V10.8ZM17.2 10C17.2 13.9765 13.9765 17.2 10 17.2V18.8C14.8601 18.8 18.8 14.8601 18.8 10H17.2ZM10 17.2C6.02355 17.2 2.8 13.9765 2.8 10H1.2C1.2 14.8601 5.13989 18.8 10 18.8V17.2ZM2.8 10C2.8 6.02355 6.02355 2.8 10 2.8V1.2C5.13989 1.2 1.2 5.13989 1.2 10H2.8ZM10 2.8C13.9765 2.8 17.2 6.02355 17.2 10H18.8C18.8 5.13989 14.8601 1.2 10 1.2V2.8ZM9.2 6.8V13.2H10.8V6.8H9.2ZM6.8 10.8H13.2V9.2H6.8V10.8Z" fill="#7F56D9"/>
</svg>
