<svg width="18" height="12" viewBox="0 0 18 12" fill="none" xmlns="http://www.w3.org/2000/svg">
<path d="M1 0.2C0.558172 0.2 0.2 0.558172 0.2 1C0.2 1.44183 0.558172 1.8 1 1.8V0.2ZM17 1.8C17.4418 1.8 17.8 1.44183 17.8 1C17.8 0.558172 17.4418 0.2 17 0.2V1.8ZM3.66667 5.2C3.22484 5.2 2.86667 5.55817 2.86667 6C2.86667 6.44183 3.22484 6.8 3.66667 6.8V5.2ZM14.3333 6.8C14.7752 6.8 15.1333 6.44183 15.1333 6C15.1333 5.55817 14.7752 5.2 14.3333 5.2V6.8ZM6.33333 10.2C5.89151 10.2 5.53333 10.5582 5.53333 11C5.53333 11.4418 5.89151 11.8 6.33333 11.8V10.2ZM11.6667 11.8C12.1085 11.8 12.4667 11.4418 12.4667 11C12.4667 10.5582 12.1085 10.2 11.6667 10.2V11.8ZM1 1.8H17V0.2H1V1.8ZM3.66667 6.8H14.3333V5.2H3.66667V6.8ZM6.33333 11.8H11.6667V10.2H6.33333V11.8Z" fill="#101828"/>
</svg>
