<svg width="20" height="20" viewBox="0 0 20 20" fill="none" xmlns="http://www.w3.org/2000/svg">
<path d="M16.5 8.54545L17.3 8.54545L16.5 8.54545ZM10 18L9.5541 18.6642C9.8238 18.8453 10.1762 18.8453 10.4459 18.6642L10 18ZM3.5 8.54545H2.7H3.5ZM10 2V2.8V2ZM15.7 8.54545C15.7 10.7714 14.2601 12.9407 12.6673 14.6336C11.887 15.4631 11.104 16.1424 10.5152 16.6145C10.2214 16.8501 9.97757 17.0328 9.80876 17.1556C9.72439 17.2169 9.65888 17.2632 9.61536 17.2936C9.5936 17.3088 9.57736 17.3199 9.56701 17.327C9.56184 17.3305 9.55814 17.3331 9.55598 17.3345C9.55489 17.3353 9.55419 17.3357 9.55387 17.3359C9.55372 17.3361 9.55366 17.3361 9.55369 17.3361C9.55371 17.3361 9.55381 17.336 9.55382 17.336C9.55395 17.3359 9.5541 17.3358 10 18C10.4459 18.6642 10.4461 18.6641 10.4463 18.6639C10.4464 18.6639 10.4467 18.6637 10.4469 18.6635C10.4473 18.6632 10.4479 18.6629 10.4485 18.6625C10.4498 18.6616 10.4514 18.6605 10.4534 18.6591C10.4575 18.6564 10.4632 18.6525 10.4703 18.6476C10.4845 18.6379 10.5048 18.624 10.5306 18.6059C10.5823 18.5699 10.6565 18.5175 10.7498 18.4495C10.9365 18.3138 11.2005 18.1158 11.5161 17.8628C12.146 17.3576 12.988 16.6278 13.8327 15.73C15.4899 13.9684 17.3 11.4104 17.3 8.54545H15.7ZM10 18C10.4459 17.3358 10.4461 17.3359 10.4462 17.336C10.4462 17.336 10.4463 17.3361 10.4463 17.3361C10.4463 17.3361 10.4463 17.3361 10.4461 17.3359C10.4458 17.3357 10.4451 17.3353 10.444 17.3345C10.4419 17.3331 10.4382 17.3305 10.433 17.327C10.4226 17.3199 10.4064 17.3088 10.3846 17.2936C10.3411 17.2632 10.2756 17.2169 10.1912 17.1556C10.0224 17.0328 9.77861 16.8501 9.48484 16.6145C8.89605 16.1424 8.11302 15.4631 7.33267 14.6336C5.73993 12.9407 4.3 10.7714 4.3 8.54545H2.7C2.7 11.4104 4.51007 13.9684 6.16733 15.73C7.01198 16.6278 7.85395 17.3576 8.48391 17.8628C8.79951 18.1158 9.06351 18.3138 9.25017 18.4495C9.34353 18.5175 9.41767 18.5699 9.46936 18.6059C9.49521 18.624 9.51547 18.6379 9.52972 18.6476C9.53685 18.6525 9.54247 18.6564 9.54655 18.6591C9.54859 18.6605 9.55025 18.6616 9.55151 18.6625C9.55213 18.6629 9.55267 18.6632 9.5531 18.6635C9.55332 18.6637 9.55357 18.6639 9.55367 18.6639C9.5539 18.6641 9.5541 18.6642 10 18ZM4.3 8.54545C4.3 7.01987 4.90188 5.55789 5.97146 4.48083L4.83615 3.35341C3.46776 4.73137 2.7 6.59911 2.7 8.54545L4.3 8.54545ZM5.97146 4.48083C7.04085 3.40396 8.49007 2.8 10 2.8V1.2C8.06211 1.2 6.20473 1.97526 4.83615 3.35341L5.97146 4.48083ZM10 2.8C11.5099 2.8 12.9591 3.40396 14.0285 4.48083L15.1638 3.35341C13.7953 1.97526 11.9379 1.2 10 1.2V2.8ZM14.0285 4.48083C15.0981 5.55789 15.7 7.01987 15.7 8.54545L17.3 8.54545C17.3 6.59911 16.5322 4.73137 15.1638 3.35341L14.0285 4.48083ZM11.3667 8.54545C11.3667 9.31388 10.7495 9.92727 10 9.92727V11.5273C11.6437 11.5273 12.9667 10.187 12.9667 8.54545H11.3667ZM10 9.92727C9.25046 9.92727 8.63333 9.31388 8.63333 8.54545H7.03333C7.03333 10.187 8.35631 11.5273 10 11.5273V9.92727ZM8.63333 8.54545C8.63333 7.77703 9.25046 7.16364 10 7.16364V5.56364C8.35631 5.56364 7.03333 6.90391 7.03333 8.54545H8.63333ZM10 7.16364C10.7495 7.16364 11.3667 7.77703 11.3667 8.54545H12.9667C12.9667 6.90391 11.6437 5.56364 10 5.56364V7.16364Z" fill="#101828"/>
</svg>
