<svg width="20" height="20" viewBox="0 0 20 20" fill="none" xmlns="http://www.w3.org/2000/svg">
<path d="M3 7.6L2.50024 6.97531C2.31047 7.12712 2.2 7.35697 2.2 7.6H3ZM10 2L10.4998 1.3753C10.2076 1.14157 9.79242 1.14157 9.50024 1.3753L10 2ZM17 7.6H17.8C17.8 7.35697 17.6895 7.12712 17.4998 6.97531L17 7.6ZM3 16.4H2.2H3ZM6.86667 18C6.86667 18.4418 7.22484 18.8 7.66667 18.8C8.10849 18.8 8.46667 18.4418 8.46667 18H6.86667ZM7.66667 10V9.2C7.22484 9.2 6.86667 9.55817 6.86667 10H7.66667ZM12.3333 10H13.1333C13.1333 9.55817 12.7752 9.2 12.3333 9.2V10ZM11.5333 18C11.5333 18.4418 11.8915 18.8 12.3333 18.8C12.7752 18.8 13.1333 18.4418 13.1333 18H11.5333ZM3.49976 8.2247L10.4998 2.6247L9.50024 1.3753L2.50024 6.97531L3.49976 8.2247ZM9.50024 2.6247L16.5002 8.2247L17.4998 6.97531L10.4998 1.3753L9.50024 2.6247ZM16.2 7.6V16.4H17.8V7.6H16.2ZM16.2 16.4C16.2 16.6193 16.1151 16.8253 15.9708 16.9737L17.118 18.089C17.5571 17.6373 17.8 17.0294 17.8 16.4H16.2ZM15.9708 16.9737C15.8272 17.1214 15.6374 17.2 15.4444 17.2V18.8C16.0766 18.8 16.6781 18.5415 17.118 18.089L15.9708 16.9737ZM15.4444 17.2H4.55556V18.8H15.4444V17.2ZM4.55556 17.2C4.36256 17.2 4.17275 17.1214 4.02921 16.9737L2.88202 18.089C3.32192 18.5415 3.92343 18.8 4.55556 18.8V17.2ZM4.02921 16.9737C3.88492 16.8253 3.8 16.6193 3.8 16.4H2.2C2.2 17.0294 2.44286 17.6373 2.88202 18.089L4.02921 16.9737ZM3.8 16.4V7.6H2.2V16.4H3.8ZM8.46667 18V10H6.86667V18H8.46667ZM7.66667 10.8H12.3333V9.2H7.66667V10.8ZM11.5333 10V18H13.1333V10H11.5333Z" fill="black"/>
</svg>
