<svg width="152" height="24" viewBox="0 0 152 24" fill="none" xmlns="http://www.w3.org/2000/svg">
<path d="M6.09226 4.2688C7.09201 4.2688 7.97461 4.47433 8.74005 4.8854C9.52111 5.28066 10.1303 5.77868 10.5677 6.37947V4.48224H13.2624V17.7629C13.2624 18.9645 13.0124 20.0316 12.5126 20.9645C12.0127 21.9131 11.2863 22.6561 10.3334 23.1937C9.39614 23.7312 8.27141 24 6.95923 24C5.20966 24 3.75689 23.5811 2.60093 22.7431C1.89547 22.2414 1.37618 21.6278 1.04307 20.9023C0.689485 20.1322 1.37304 19.3755 2.2204 19.3755C2.84942 19.3755 3.37444 19.8184 3.76711 20.3098C3.97995 20.5762 4.24731 20.8102 4.56919 21.0119C5.2409 21.4388 6.03758 21.6522 6.95923 21.6522C8.03709 21.6522 8.90407 21.3202 9.56016 20.6562C10.2319 19.9921 10.5677 19.0277 10.5677 17.7629V15.5811C10.1147 16.1977 9.49767 16.7194 8.71662 17.1463C7.95118 17.5573 7.07639 17.7629 6.09226 17.7629C4.96753 17.7629 3.93654 17.4783 2.99927 16.9091C2.07762 16.3241 1.34342 15.5178 0.79668 14.4901C0.26556 13.4467 0 12.2688 0 10.9565C0 9.64429 0.26556 8.48224 0.79668 7.47038C1.34342 6.45852 2.07762 5.67591 2.99927 5.12255C3.93654 4.55338 4.96753 4.2688 6.09226 4.2688ZM10.5677 11.004C10.5677 10.1028 10.3803 9.32018 10.0054 8.65615C9.64607 7.99212 9.16963 7.48619 8.57603 7.13836C7.98242 6.79054 7.34195 6.61662 6.65462 6.61662C5.96729 6.61662 5.32682 6.79054 4.73322 7.13836C4.13961 7.47038 3.65535 7.9684 3.28045 8.63243C2.92116 9.28066 2.74152 10.0554 2.74152 10.9565C2.74152 11.8577 2.92116 12.6482 3.28045 13.3281C3.65535 14.0079 4.13961 14.5297 4.73322 14.8933C5.34244 15.2411 5.98291 15.415 6.65462 15.415C7.34195 15.415 7.98242 15.2411 8.57603 14.8933C9.16963 14.5455 9.64607 14.0396 10.0054 13.3755C10.3803 12.6957 10.5677 11.9052 10.5677 11.004Z" fill="#101828"/>
<path d="M15.8805 10.9565C15.8805 9.64429 16.1461 8.48224 16.6772 7.47038C17.2239 6.45852 17.9581 5.67591 18.8798 5.12255C19.817 4.55338 20.848 4.2688 21.9728 4.2688C22.9881 4.2688 23.8707 4.47433 24.6206 4.8854C25.386 5.28066 25.9952 5.77868 26.4482 6.37947V4.48224H29.1429V17.5494H26.4482V15.6048C25.9952 16.2214 25.3782 16.7352 24.5971 17.1463C23.8161 17.5573 22.9257 17.7629 21.9259 17.7629C20.8168 17.7629 19.8014 17.4783 18.8798 16.9091C17.9581 16.3241 17.2239 15.5178 16.6772 14.4901C16.1461 13.4467 15.8805 12.2688 15.8805 10.9565ZM26.4482 11.004C26.4482 10.1028 26.2608 9.32018 25.8859 8.65615C25.5266 7.99212 25.0501 7.48619 24.4565 7.13836C23.8629 6.79054 23.2225 6.61662 22.5351 6.61662C21.8478 6.61662 21.2073 6.79054 20.6137 7.13836C20.0201 7.47038 19.5359 7.9684 19.161 8.63243C18.8017 9.28066 18.622 10.0554 18.622 10.9565C18.622 11.8577 18.8017 12.6482 19.161 13.3281C19.5359 14.0079 20.0201 14.5297 20.6137 14.8933C21.223 15.2411 21.8634 15.415 22.5351 15.415C23.2225 15.415 23.8629 15.2411 24.4565 14.8933C25.0501 14.5455 25.5266 14.0396 25.8859 13.3755C26.2608 12.6957 26.4482 11.9052 26.4482 11.004Z" fill="#101828"/>
<path d="M48.2804 4.2688C49.2958 4.2688 50.2018 4.48224 50.9985 4.90911C51.8108 5.33599 52.4435 5.9684 52.8965 6.80635C53.3651 7.64429 53.5994 8.65615 53.5994 9.84192V17.5494H50.9516V10.2451C50.9516 9.07512 50.6626 8.18184 50.0847 7.56524C49.5067 6.93283 48.7178 6.61662 47.7181 6.61662C46.7183 6.61662 45.9216 6.93283 45.328 7.56524C44.75 8.18184 44.461 9.07512 44.461 10.2451V17.5494H41.8132V10.2451C41.8132 9.07512 41.5243 8.18184 40.9463 7.56524C40.3683 6.93283 39.5794 6.61662 38.5797 6.61662C37.5799 6.61662 36.7832 6.93283 36.1896 7.56524C35.6116 8.18184 35.3226 9.07512 35.3226 10.2451V17.5494H32.6514V4.48224H35.3226V5.97631C35.76 5.43876 36.3146 5.01979 36.9863 4.71939C37.658 4.419 38.3766 4.2688 39.142 4.2688C40.173 4.2688 41.0947 4.49014 41.907 4.93283C42.7193 5.37552 43.3441 6.01583 43.7815 6.85378C44.172 6.06326 44.7813 5.43876 45.6092 4.98026C46.4371 4.50595 47.3275 4.2688 48.2804 4.2688Z" fill="#101828"/>
<path d="M68.8315 10.6957C68.8315 11.1858 68.8003 11.6285 68.7378 12.0237H58.873C58.9511 13.0672 59.3339 13.9052 60.0212 14.5376C60.7085 15.17 61.5521 15.4862 62.5518 15.4862C63.989 15.4862 65.0043 14.8775 65.5979 13.6601H68.48C68.0895 14.8617 67.3788 15.8498 66.3478 16.6245C65.3324 17.3834 64.0671 17.7629 62.5518 17.7629C61.3177 17.7629 60.2086 17.4862 59.2245 16.9328C58.256 16.3637 57.4906 15.5731 56.9282 14.5613C56.3815 13.5336 56.1081 12.3478 56.1081 11.004C56.1081 9.6601 56.3736 8.48224 56.9048 7.47038C57.4515 6.44271 58.2091 5.6522 59.1776 5.09884C60.1618 4.54548 61.2865 4.2688 62.5518 4.2688C63.7703 4.2688 64.8559 4.53757 65.8088 5.07512C66.7617 5.61267 67.5037 6.37157 68.0349 7.3518C68.566 8.31623 68.8315 9.43085 68.8315 10.6957ZM66.0432 9.84192C66.0275 8.84587 65.6761 8.04745 64.9887 7.44666C64.3014 6.84587 63.45 6.54548 62.4347 6.54548C61.513 6.54548 60.7241 6.84587 60.0681 7.44666C59.412 8.03164 59.0214 8.83006 58.8965 9.84192H66.0432Z" fill="#101828"/>
<path d="M76.4512 15.1304L81.7372 1.36795C81.9312 0.862946 82.4163 0.529645 82.9572 0.529645C83.8837 0.529645 84.516 1.4669 84.1691 2.32592L78.6097 16.092C78.254 16.9728 77.3993 17.5494 76.4494 17.5494C75.478 17.5494 74.6086 16.9468 74.2677 16.0372L70.6083 6.27287C70.2835 5.40637 70.9241 4.48221 71.8495 4.48221C72.4157 4.48221 72.9193 4.84183 73.1032 5.37734L76.4512 15.1304Z" fill="#6941C6"/>
<path d="M96.794 10.6957C96.794 11.1858 96.7628 11.6285 96.7003 12.0237H86.8355C86.9136 13.0672 87.2964 13.9051 87.9837 14.5375C88.671 15.17 89.5146 15.4862 90.5143 15.4862C91.9515 15.4862 92.9668 14.8775 93.5604 13.6601H96.4425C96.052 14.8617 95.3413 15.8498 94.3103 16.6245C93.2949 17.3834 92.0296 17.7628 90.5143 17.7628C89.2802 17.7628 88.1711 17.4862 87.187 16.9328C86.2185 16.3636 85.453 15.5731 84.8907 14.5613C84.3439 13.5336 84.0706 12.3478 84.0706 11.004C84.0706 9.66008 84.3361 8.48221 84.8673 7.47036C85.414 6.44269 86.1716 5.65217 87.1401 5.09881C88.1243 4.54545 89.249 4.26877 90.5143 4.26877C91.7328 4.26877 92.8184 4.53755 93.7713 5.0751C94.7242 5.61265 95.4662 6.37154 95.9974 7.35178C96.5285 8.31621 96.794 9.43083 96.794 10.6957ZM94.0056 9.8419C93.99 8.84585 93.6385 8.04743 92.9512 7.44664C92.2639 6.84585 91.4125 6.54545 90.3972 6.54545C89.4755 6.54545 88.6866 6.84585 88.0305 7.44664C87.3745 8.03162 86.9839 8.83004 86.859 9.8419H94.0056Z" fill="#6941C6"/>
<path d="M105.937 4.26877C106.952 4.26877 107.858 4.48221 108.655 4.90909C109.467 5.33597 110.1 5.96838 110.553 6.80632C111.006 7.64427 111.232 8.65613 111.232 9.8419V17.5494H108.585V10.2451C108.585 9.0751 108.296 8.18182 107.718 7.56522C107.14 6.93281 106.351 6.6166 105.351 6.6166C104.351 6.6166 103.555 6.93281 102.961 7.56522C102.383 8.18182 102.094 9.0751 102.094 10.2451V17.5494H99.4228V4.48221H102.094V5.97628C102.531 5.43874 103.086 5.01976 103.758 4.71937C104.445 4.41897 105.171 4.26877 105.937 4.26877Z" fill="#6941C6"/>
<path d="M113.749 10.9565C113.749 9.64427 114.015 8.48221 114.546 7.47036C115.093 6.4585 115.827 5.67589 116.749 5.12253C117.686 4.55336 118.725 4.26877 119.865 4.26877C120.709 4.26877 121.536 4.4585 122.349 4.83794C123.177 5.20158 123.833 5.6917 124.317 6.3083V0H127.012V17.5494H124.317V15.581C123.88 16.2134 123.27 16.7352 122.489 17.1462C121.724 17.5573 120.841 17.7628 119.842 17.7628C118.717 17.7628 117.686 17.4783 116.749 16.9091C115.827 16.3241 115.093 15.5178 114.546 14.4901C114.015 13.4466 113.749 12.2688 113.749 10.9565ZM124.317 11.004C124.317 10.1028 124.13 9.32016 123.755 8.65613C123.395 7.99209 122.919 7.48617 122.325 7.13834C121.732 6.79051 121.091 6.6166 120.404 6.6166C119.717 6.6166 119.076 6.79051 118.482 7.13834C117.889 7.47036 117.405 7.96838 117.03 8.63241C116.67 9.28063 116.491 10.0553 116.491 10.9565C116.491 11.8577 116.67 12.6482 117.03 13.3281C117.405 14.0079 117.889 14.5296 118.482 14.8933C119.092 15.2411 119.732 15.415 120.404 15.415C121.091 15.415 121.732 15.2411 122.325 14.8933C122.919 14.5455 123.395 14.0395 123.755 13.3755C124.13 12.6957 124.317 11.9051 124.317 11.004Z" fill="#6941C6"/>
<path d="M136.12 17.7628C134.902 17.7628 133.801 17.4862 132.817 16.9328C131.832 16.3636 131.059 15.5731 130.497 14.5613C129.934 13.5336 129.653 12.3478 129.653 11.004C129.653 9.67589 129.942 8.49802 130.52 7.47036C131.098 6.44269 131.887 5.65217 132.887 5.09881C133.887 4.54545 135.003 4.26877 136.238 4.26877C137.472 4.26877 138.589 4.54545 139.588 5.09881C140.588 5.65217 141.377 6.44269 141.955 7.47036C142.533 8.49802 142.822 9.67589 142.822 11.004C142.822 12.332 142.525 13.5099 141.931 14.5375C141.338 15.5652 140.526 16.3636 139.495 16.9328C138.479 17.4862 137.354 17.7628 136.12 17.7628ZM136.12 15.415C136.808 15.415 137.448 15.249 138.042 14.917C138.651 14.585 139.143 14.087 139.518 13.4229C139.893 12.7589 140.08 11.9526 140.08 11.004C140.08 10.0553 139.901 9.25692 139.541 8.6087C139.182 7.94466 138.706 7.44664 138.112 7.11462C137.518 6.78261 136.878 6.6166 136.191 6.6166C135.503 6.6166 134.863 6.78261 134.269 7.11462C133.691 7.44664 133.23 7.94466 132.887 8.6087C132.543 9.25692 132.371 10.0553 132.371 11.004C132.371 12.4111 132.723 13.502 133.426 14.2767C134.144 15.0356 135.043 15.415 136.12 15.415Z" fill="#6941C6"/>
<path d="M148.134 6.37945C148.524 5.71542 149.04 5.20158 149.68 4.83794C150.336 4.4585 151.11 4.26877 152 4.26877V7.06719H151.32C150.274 7.06719 149.477 7.33597 148.93 7.87352C148.399 8.41107 148.134 9.34387 148.134 10.6719V17.5494H145.463V4.48221H148.134V6.37945Z" fill="#6941C6"/>
</svg>
