<svg width="20" height="20" viewBox="0 0 20 20" fill="none" xmlns="http://www.w3.org/2000/svg">
<path d="M17.4343 18.5657C17.7467 18.8781 18.2533 18.8781 18.5657 18.5657C18.8781 18.2533 18.8781 17.7467 18.5657 17.4343L17.4343 18.5657ZM14.699 13.5676C14.3866 13.2552 13.8801 13.2552 13.5676 13.5676C13.2552 13.8801 13.2552 14.3866 13.5676 14.699L14.699 13.5676ZM15.4222 9.11111C15.4222 12.5966 12.5966 15.4222 9.11111 15.4222V17.0222C13.4803 17.0222 17.0222 13.4803 17.0222 9.11111H15.4222ZM9.11111 15.4222C5.62558 15.4222 2.8 12.5966 2.8 9.11111H1.2C1.2 13.4803 4.74193 17.0222 9.11111 17.0222V15.4222ZM2.8 9.11111C2.8 5.62558 5.62558 2.8 9.11111 2.8V1.2C4.74193 1.2 1.2 4.74193 1.2 9.11111H2.8ZM9.11111 2.8C12.5966 2.8 15.4222 5.62558 15.4222 9.11111H17.0222C17.0222 4.74193 13.4803 1.2 9.11111 1.2V2.8ZM18.5657 17.4343L14.699 13.5676L13.5676 14.699L17.4343 18.5657L18.5657 17.4343Z" fill="#101828"/>
</svg>
